<svg width="60" height="60" viewBox="0 0 60 60" fill="none" xmlns="http://www.w3.org/2000/svg">
<path d="M6.94775 32.6333V28.4165C6.94775 26.8349 8.22995 25.5527 9.81164 25.5527H10.2816" stroke="black" stroke-miterlimit="10" stroke-linecap="round" stroke-linejoin="round"/>
<path d="M49.8188 25.5527H50.1882C51.7699 25.5527 53.052 26.8349 53.052 28.4166V32.5327" stroke="black" stroke-miterlimit="10" stroke-linecap="round" stroke-linejoin="round"/>
<path d="M10.2871 30.1797V25.3671C10.2871 23.2856 11.6232 21.5163 13.4846 20.8699" stroke="black" stroke-miterlimit="10" stroke-linecap="round" stroke-linejoin="round"/>
<path d="M19.6084 20.8825C21.4509 21.5392 22.7698 23.299 22.7698 25.367L22.7952 26.4744" stroke="black" stroke-miterlimit="10" stroke-linecap="round" stroke-linejoin="round"/>
<path d="M16.5325 22.1936H16.5242C14.3966 22.1936 12.6719 20.4689 12.6719 18.3413V15.0651C12.6719 12.9376 14.3966 11.2129 16.5242 11.2129H16.5325C18.6601 11.2129 20.3849 12.9376 20.3849 15.0651V18.3413C20.3849 20.4689 18.6601 22.1936 16.5325 22.1936Z" stroke="black" stroke-miterlimit="10" stroke-linecap="round" stroke-linejoin="round"/>
<path d="M12.6719 16.7034V15.0734C12.6719 12.9413 14.3985 11.213 16.5283 11.213C18.6582 11.213 20.3849 12.9413 20.3849 15.0734L12.6719 16.7034Z" stroke="black" stroke-miterlimit="10" stroke-linecap="round" stroke-linejoin="round"/>
<path d="M45.6377 11.7494C45.9519 10.8151 46.8348 10.1421 47.8749 10.1421C49.1781 10.1421 50.2347 11.1986 50.2347 12.5018V21.0011C50.2347 21.7801 49.8572 22.4709 49.2753 22.9006" stroke="black" stroke-miterlimit="10" stroke-linecap="round" stroke-linejoin="round"/>
<path d="M46.5513 20.8824C48.3941 21.5388 49.7132 23.2989 49.7132 25.3671V30.1797" stroke="black" stroke-miterlimit="10" stroke-linecap="round" stroke-linejoin="round"/>
<path d="M37.2305 26.479V25.3671C37.2305 23.2987 38.55 21.5385 40.3931 20.8822" stroke="black" stroke-miterlimit="10" stroke-linecap="round" stroke-linejoin="round"/>
<path d="M43.4759 22.1936H43.4676C41.34 22.1936 39.6152 20.4689 39.6152 18.3413V15.0651C39.6152 12.9376 41.34 11.2129 43.4676 11.2129H43.4759C45.6035 11.2129 47.3282 12.9376 47.3282 15.0651V18.3413C47.3282 20.4689 45.6035 22.1936 43.4759 22.1936Z" stroke="black" stroke-miterlimit="10" stroke-linecap="round" stroke-linejoin="round"/>
<path d="M39.6152 16.7034V15.0734C39.6152 12.9413 41.3419 11.213 43.4717 11.213C45.6016 11.213 47.3282 12.9413 47.3282 15.0734L39.6152 16.7034Z" stroke="black" stroke-miterlimit="10" stroke-linecap="round" stroke-linejoin="round"/>
<path d="M37.1556 47.2047C34.8886 47.4973 32.4868 47.6543 30.0002 47.6543C27.5083 47.6543 25.1017 47.4966 22.8306 47.2029" stroke="black" stroke-miterlimit="10" stroke-linecap="round" stroke-linejoin="round"/>
<path d="M33.6523 26.133C45.7282 26.898 55 31.3986 55 36.8364C55 39.4648 52.8338 41.8742 49.2318 43.7488" stroke="black" stroke-miterlimit="10" stroke-linecap="round" stroke-linejoin="round"/>
<path d="M10.8197 43.7754C7.18682 41.8971 5 39.4772 5 36.8364C5 31.1936 14.9841 26.5598 27.7251 26.0625" stroke="black" stroke-miterlimit="10" stroke-linecap="round" stroke-linejoin="round"/>
<path d="M10.2871 46.075C10.2871 44.3947 11.1578 42.9178 12.4727 42.0708" stroke="black" stroke-miterlimit="10" stroke-linecap="round" stroke-linejoin="round"/>
<path d="M20.5405 42.0432C21.8798 42.8855 22.7697 44.3763 22.7697 46.0751V48.9099" stroke="black" stroke-miterlimit="10" stroke-linecap="round" stroke-linejoin="round"/>
<path d="M13.5175 46.1663C12.9885 45.5066 12.6719 44.6691 12.6719 43.7577V35.7732C12.6719 33.6457 14.3966 31.9209 16.5242 31.9209H16.5325C18.6601 31.9209 20.3849 33.6457 20.3849 35.7732V43.7577C20.3849 45.2942 19.4853 46.6206 18.1842 47.239" stroke="black" stroke-miterlimit="10" stroke-linecap="round" stroke-linejoin="round"/>
<path d="M49.7132 46.2642V46.0749C49.7132 43.9889 48.3712 42.2164 46.5034 41.5735" stroke="black" stroke-miterlimit="10" stroke-linecap="round" stroke-linejoin="round"/>
<path d="M40.4669 41.5645C38.5852 42.1995 37.2305 43.9791 37.2305 46.075V48.947" stroke="black" stroke-miterlimit="10" stroke-linecap="round" stroke-linejoin="round"/>
<path d="M43.4759 42.9019H43.4676C41.34 42.9019 39.6152 41.1771 39.6152 39.0495V35.7734C39.6152 33.6458 41.34 31.9212 43.4676 31.9212H43.4759C45.6035 31.9212 47.3282 33.6458 47.3282 35.7734V39.0495C47.3282 41.1771 45.6035 42.9019 43.4759 42.9019Z" stroke="black" stroke-miterlimit="10" stroke-linecap="round" stroke-linejoin="round"/>
<path d="M18.7607 55H8.83106C7.79091 55 6.94775 54.1568 6.94775 53.1167V49.1246C6.94775 47.5429 8.22995 46.2607 9.81164 46.2607H15.8969C17.4785 46.2607 18.7607 47.5429 18.7607 49.1246V55Z" stroke="black" stroke-miterlimit="10" stroke-linecap="round" stroke-linejoin="round"/>
<path d="M18.731 51.4725L22.7698 48.952C23.7515 48.3098 25.0539 49.014 25.0539 50.187C25.0539 50.685 24.8028 51.1495 24.386 51.4221L18.731 55" stroke="black" stroke-miterlimit="10" stroke-linecap="round" stroke-linejoin="round"/>
<path d="M41.2393 51.4725L37.2005 48.952C36.2189 48.3098 34.9165 49.014 34.9165 50.187C34.9165 50.685 35.1676 51.1495 35.5843 51.4221L41.2393 55V51.4725Z" stroke="black" stroke-miterlimit="10" stroke-linecap="round" stroke-linejoin="round"/>
<path d="M53.0522 49.2253V49.1246C53.0522 47.5429 51.7701 46.2607 50.1884 46.2607H44.1031C42.5215 46.2607 41.2393 47.5429 41.2393 49.1246V55H51.1689C52.171 55 52.9879 54.2169 53.0465 53.2296" stroke="black" stroke-miterlimit="10" stroke-linecap="round" stroke-linejoin="round"/>
<path d="M37.0465 35.8649C37.0465 33.2494 34.9263 31.1292 32.3108 31.1292C29.6954 31.1292 27.5752 33.2494 27.5752 35.8649C27.5752 38.4803 29.6954 40.6005 32.3108 40.6005C32.6318 40.6005 32.9452 40.5682 33.2482 40.5074L35.435 41.7891V39.4224C36.4225 38.5545 37.0465 37.2829 37.0465 35.8649Z" stroke="black" stroke-miterlimit="10" stroke-linecap="round" stroke-linejoin="round"/>
<path d="M30.0604 36.6902C31.0314 36.6902 31.033 35.1811 30.0604 35.1811C29.0894 35.1811 29.0878 36.6902 30.0604 36.6902Z" fill="black"/>
<path d="M32.3108 36.6902C33.2819 36.6902 33.2835 35.1811 32.3108 35.1811C31.3399 35.1811 31.3383 36.6902 32.3108 36.6902Z" fill="black"/>
<path d="M34.5614 36.6902C35.5324 36.6902 35.534 35.1811 34.5614 35.1811C33.5903 35.1811 33.5888 36.6902 34.5614 36.6902Z" fill="black"/>
<path d="M31.8956 14.1723C32.1346 14.7382 32.2667 15.3604 32.2667 16.0134C32.2667 18.6287 30.1465 20.7491 27.5311 20.7491C27.2101 20.7491 26.8967 20.7167 26.5937 20.6558L24.407 21.9375V19.5708C23.4196 18.7029 22.7954 17.4314 22.7954 16.0134C22.7954 13.3979 24.9156 11.2777 27.5311 11.2777C28.185 11.2777 28.8079 11.4101 29.3744 11.6498" stroke="black" stroke-miterlimit="10" stroke-linecap="round" stroke-linejoin="round"/>
<path d="M25.2806 16.8384C26.2516 16.8384 26.2532 15.3293 25.2806 15.3293C24.3096 15.3293 24.3081 16.8384 25.2806 16.8384Z" fill="black"/>
<path d="M27.5311 16.8384C28.5021 16.8384 28.5038 15.3293 27.5311 15.3293C26.5601 15.3293 26.5585 16.8384 27.5311 16.8384Z" fill="black"/>
<path d="M29.7816 16.8384C30.7526 16.8384 30.7541 15.3293 29.7816 15.3293C28.8106 15.3293 28.809 16.8384 29.7816 16.8384Z" fill="black"/>
<path d="M38.613 9.73577C38.613 7.12028 36.4928 5.00006 33.8773 5.00006C31.2619 5.00006 29.1416 7.12028 29.1416 9.73577C29.1416 12.3512 31.2619 14.4714 33.8773 14.4714C34.1983 14.4714 34.5117 14.4391 34.8147 14.3782L37.0015 15.6599V13.2932C37.9889 12.4253 38.613 11.1538 38.613 9.73577Z" stroke="black" stroke-miterlimit="10" stroke-linecap="round" stroke-linejoin="round"/>
<path d="M32.644 8.52891L35.1107 10.9956" stroke="black" stroke-miterlimit="10" stroke-linecap="round" stroke-linejoin="round"/>
<path d="M35.1107 8.52891L32.644 10.9956" stroke="black" stroke-miterlimit="10" stroke-linecap="round" stroke-linejoin="round"/>
</svg>
