<svg width="60" height="60" viewBox="0 0 60 60" fill="none" xmlns="http://www.w3.org/2000/svg">
<path fill-rule="evenodd" clip-rule="evenodd" d="M34.0344 19.7754C39.7414 19.6728 45.4478 19.35 51.1548 18.805L51.0544 18.82L51.4413 18.7836C52.1466 18.7836 52.8605 19.1513 53.4461 19.9464C54.3353 21.154 55 23.5714 55 26.3735C55 29.1756 54.3353 31.593 53.4461 32.8005C52.8605 33.5956 52.1466 33.9633 51.4413 33.9633L51.0587 33.9269L51.1591 33.9419C47.3289 33.5785 43.5009 33.3135 39.6707 33.1468L41.7205 36.697C41.9192 37.039 41.9107 37.4643 41.6991 37.7999C41.4875 38.1355 41.1092 38.3257 40.7137 38.2958L38.0719 38.097L36.6719 40.664C36.486 41.0038 36.1333 41.2154 35.7465 41.2197C35.3596 41.224 35.0005 41.0209 34.8082 40.6854L30.3902 33.0337L25.9722 40.6854C25.7734 41.0273 25.4036 41.2347 25.0061 41.2197C24.6107 41.2047 24.2559 40.9718 24.0828 40.6148L22.935 38.2273L20.0132 38.2979C19.6263 38.3064 19.2651 38.1076 19.0684 37.7742C18.8718 37.4429 18.8697 37.0283 19.062 36.6948L21.1332 33.1061C17.0486 33.2686 12.9639 33.5443 8.88145 33.9333C8.77244 33.9504 8.66558 33.9589 8.55657 33.9589H8.55229C7.84907 33.9568 7.13736 33.5892 6.55386 32.7962C5.6647 31.5886 5 29.1712 5 26.3691C5 23.567 5.6647 21.1496 6.55386 19.942C7.13736 19.1491 7.85126 18.7793 8.55229 18.7793H8.55657C8.66344 18.7793 8.77244 18.7878 8.87931 18.8049C14.5754 19.3436 20.2692 19.6663 25.9658 19.771C28.6547 19.8202 31.3456 19.8202 34.0344 19.7732L34.0344 19.7754ZM24.878 21.8893C20.3254 21.7845 15.7725 21.5409 11.22 21.1626C11.7587 22.477 12.1156 24.3237 12.1156 26.3735C12.1156 28.4233 11.7587 30.2678 11.22 31.5823C15.1443 31.2531 19.0665 31.0266 22.9908 30.9047H22.9929C23.6213 30.8855 24.2497 30.8684 24.876 30.8534V21.8869L24.878 21.8893ZM25.9659 32.9695C25.1943 32.9823 24.4228 33.0015 23.6533 33.0229C23.0783 34.0211 21.8664 36.1157 21.8664 36.1157L23.5742 36.0751C23.9931 36.0644 24.38 36.3017 24.5638 36.68L25.1345 37.8663L27.9772 32.9417C27.3061 32.9481 26.6371 32.9567 25.9659 32.9695ZM32.8122 32.9524C33.9471 34.9166 35.7083 37.9689 35.7083 37.9689L36.527 36.4684C36.7279 36.0986 37.1255 35.8828 37.5444 35.9148L38.8567 36.0131L37.1447 33.0486C36.108 33.0144 35.0692 32.9887 34.0326 32.9695C33.6244 32.9609 33.2183 32.9567 32.81 32.9503L32.8122 32.9524ZM35.1227 30.8578C36.0183 30.8791 36.9159 30.9048 37.8116 30.9347H37.8137C42.33 31.0929 46.8442 31.3857 51.3606 31.8132C51.3905 31.8153 51.4204 31.8196 51.4503 31.826C51.5102 31.8196 51.5423 31.7469 51.5978 31.6871C51.7303 31.546 51.85 31.3601 51.9655 31.142C52.5254 30.067 52.8653 28.3271 52.8653 26.3714C52.8653 24.4157 52.5254 22.6758 51.9655 21.6007C51.8522 21.3827 51.7303 21.1967 51.5978 21.0557C51.5423 20.9979 51.5102 20.9231 51.4503 20.9167C51.4204 20.9231 51.3905 20.9274 51.3606 20.9295C45.9487 21.4468 40.537 21.7652 35.1227 21.8892L35.1227 30.8578ZM32.9853 21.9301C30.9954 21.9558 29.0055 21.9558 27.0157 21.928V30.8173C27.954 30.8045 28.8945 30.7981 29.8328 30.7981H29.8349C30.2089 30.7981 30.5809 30.7981 30.9549 30.8002H30.957C31.6325 30.8024 32.31 30.8088 32.9854 30.8195L32.9853 21.9301ZM8.5377 20.9234C8.48641 20.9384 8.45435 21.0046 8.40305 21.0581C8.27053 21.1991 8.15084 21.3851 8.03542 21.6031C7.47544 22.6782 7.13559 24.418 7.13559 26.3738C7.13559 28.3295 7.47543 30.0693 8.03542 31.1445C8.1487 31.3625 8.27053 31.5484 8.40305 31.6895C8.45435 31.7429 8.48427 31.8113 8.5377 31.8241C8.55694 31.822 8.57618 31.8199 8.59327 31.8177C8.63816 31.7964 8.66808 31.7365 8.71297 31.6874C8.84549 31.5463 8.96518 31.3603 9.0806 31.1423C9.64058 30.0672 9.98043 28.3274 9.98043 26.3716C9.98043 24.4159 9.64058 22.6761 9.0806 21.601C8.96732 21.3829 8.84549 21.197 8.71297 21.0559C8.66595 21.0068 8.63602 20.9469 8.59327 20.9256C8.57404 20.9234 8.55694 20.9213 8.5377 20.9213V20.9234Z" fill="black"/>
</svg>
