<svg width="60" height="60" viewBox="0 0 60 60" fill="none" xmlns="http://www.w3.org/2000/svg">
<path d="M53.4222 28.6658H53.0891V7.3764C53.0891 6.06811 52.1338 5 50.9542 5H22.8715C21.6961 5 20.7365 6.06339 20.7365 7.3764V16.045L20.5375 16.1709L17.6357 15.3057C17.1539 15.1635 16.7139 15.0958 16.2153 15.0958H8.54495C6.59231 15.0958 5 16.8635 5 19.0417V27.4231C5 28.8504 6.04127 30.0071 7.32137 30.0071C7.71735 30.0071 8.09447 29.8928 8.42132 29.6969V42.1732C8.42132 43.7497 9.57361 45.0276 10.9857 45.0276C11.7693 45.0276 12.4711 44.6335 12.9425 44.0178C13.4139 44.6335 14.1179 45.0276 14.8993 45.0276C16.3156 45.0276 17.4637 43.745 17.4637 42.1732V20.9L20.2481 21.4317C20.4136 21.462 20.575 21.4923 20.7363 21.504V28.6681H20.4032C19.5337 28.6681 18.8256 29.4563 18.8256 30.4241L18.8277 31.7884C18.8277 32.7562 19.5358 33.5445 20.4053 33.5445H53.4224C54.2919 33.5445 55 32.7562 55 31.7884V30.4148C54.9979 29.447 54.2896 28.6658 53.4222 28.6658ZM16.9612 19.4241C16.7852 19.3891 16.6009 19.4474 16.4668 19.5733C16.3264 19.7039 16.2531 19.8905 16.2531 20.0934V42.1708C16.2531 42.994 15.6476 43.6703 14.9059 43.6703C14.1663 43.6703 13.5588 42.9963 13.5588 42.1708L13.5609 30.9351C13.5609 30.5596 13.2864 30.2541 12.9491 30.2541C12.6118 30.2541 12.3373 30.5596 12.3373 30.9351V42.1708C12.3373 42.994 11.7319 43.6703 10.9902 43.6703C10.2506 43.6703 9.64305 42.9963 9.64305 42.1708L9.64514 20.0934C9.64514 19.7179 9.37068 19.4124 9.03338 19.4124C8.69608 19.4124 8.42162 19.7179 8.42162 20.0934V27.4252V27.4322C8.41534 28.1015 7.92299 28.6496 7.32168 28.6496C6.71619 28.6496 6.22173 28.0992 6.22173 27.4252L6.22383 19.0367C6.22383 17.6095 7.2651 16.4527 8.5452 16.4527H16.2155C16.6115 16.4527 16.9405 16.4994 17.3259 16.6137L20.4749 17.5511C20.6299 17.5978 20.7975 17.5745 20.9358 17.4858L24.2943 15.324C24.5457 15.1631 24.8411 15.1141 25.126 15.1981C25.411 15.282 25.6456 15.4849 25.7902 15.7648C25.9348 16.0446 25.9788 16.3734 25.9033 16.6906C25.8279 17.0078 25.6456 17.269 25.3942 17.4299L21.4847 19.9438C21.4784 19.9508 21.468 19.9555 21.4638 19.9625C21.1579 20.184 20.9756 20.184 20.4602 20.0884L16.9612 19.4241ZM21.9602 21.2104C22.0083 21.1801 22.0565 21.1568 22.1047 21.1218L26.0037 18.6148C26.5401 18.2697 26.9213 17.7123 27.0827 17.0454C27.244 16.3761 27.1581 15.6835 26.8459 15.0865C26.5359 14.4894 26.0351 14.065 25.4359 13.8855C24.8346 13.7059 24.2124 13.8015 23.6761 14.149L21.9539 15.2544V7.37447C21.9539 6.81244 22.3624 6.35305 22.8715 6.35305H50.9542C51.4591 6.35305 51.8719 6.8078 51.8719 7.37447V28.6638L21.9597 28.6615L21.9602 21.2104ZM53.7807 31.7888C53.7807 32.0104 53.6193 32.183 53.4266 32.183H20.4036C20.2045 32.183 20.0495 32.0034 20.0495 31.7888V30.4152C20.0495 30.1937 20.2108 30.0211 20.4036 30.0211H53.4207C53.6197 30.0211 53.7748 30.2007 53.7748 30.4152V31.7888H53.7807ZM12.9425 14.4451C14.9853 14.4451 16.6488 12.5934 16.6488 10.3197C16.6488 8.04589 14.9853 6.1942 12.9425 6.1942C10.8998 6.1942 9.23623 8.04589 9.23623 10.3197C9.23623 12.5958 10.8998 14.4451 12.9425 14.4451ZM12.9425 7.54905C14.3148 7.54905 15.4315 8.7897 15.4315 10.3195C15.4315 11.847 14.3169 13.09 12.9425 13.09C11.5702 13.09 10.4535 11.8494 10.4535 10.3195C10.4535 8.79203 11.5744 7.54905 12.9425 7.54905ZM52.1545 40.935C52.1545 38.9598 50.7109 37.346 48.9301 37.346C47.1555 37.346 45.7057 38.9528 45.7057 40.935C45.7057 42.9103 47.1492 44.5241 48.9301 44.5241C50.7067 44.5218 52.1545 42.9173 52.1545 40.935ZM46.9313 40.935C46.9313 39.706 47.828 38.7079 48.9322 38.7079C50.0363 38.7079 50.933 39.706 50.933 40.935C50.933 42.164 50.0363 43.1622 48.9322 43.1622C47.826 43.1668 46.9313 42.164 46.9313 40.935ZM48.9322 45.4243C45.5863 45.4243 42.8666 48.4513 42.8666 52.1758V53.1786C42.8666 54.1814 43.602 55 44.5029 55H53.3591C54.26 55 54.9954 54.1814 54.9954 53.1786V52.1758C54.9975 48.4515 52.2782 45.4243 48.9322 45.4243ZM53.7803 53.1734C53.7803 53.43 53.5917 53.6399 53.3613 53.6399H44.5072C44.2768 53.6399 44.0882 53.43 44.0882 53.1734V52.1706C44.0882 49.1972 46.2608 46.7742 48.9363 46.7742C51.6076 46.7742 53.7802 49.1926 53.7802 52.1706L53.7803 53.1734ZM38.8381 40.9347C38.8381 38.9595 37.3946 37.3457 35.6138 37.3457C33.8329 37.3457 32.3894 38.9525 32.3894 40.9347C32.3894 42.91 33.8329 44.5238 35.6138 44.5238C37.3946 44.5215 38.8381 42.917 38.8381 40.9347ZM33.6129 40.9347C33.6129 39.7057 34.5096 38.7076 35.6138 38.7076C36.7179 38.7076 37.6146 39.7057 37.6146 40.9347C37.6146 42.1637 36.7179 43.1619 35.6138 43.1619C34.5096 43.1619 33.6129 42.1637 33.6129 40.9347ZM35.62 45.424C32.2741 45.424 29.5545 48.451 29.5545 52.1755V53.1783C29.5545 54.1811 30.2899 54.9997 31.1908 54.9997H40.047C40.9479 54.9997 41.6833 54.1811 41.6833 53.1783V52.1755C41.6854 48.4512 38.9619 45.424 35.62 45.424ZM40.4639 53.1731C40.4639 53.4297 40.2754 53.6396 40.0449 53.6396H31.1887C30.9582 53.6396 30.7697 53.4297 30.7697 53.1731V52.1703C30.7697 49.1969 32.9423 46.7739 35.6178 46.7739C38.2933 46.7739 40.4659 49.1923 40.4659 52.1703L40.468 53.1731H40.4639ZM25.5255 40.9344C25.5255 38.9592 24.082 37.3454 22.3012 37.3454C20.5203 37.3454 19.0768 38.9522 19.0768 40.9344C19.0768 42.9097 20.5203 44.5235 22.3012 44.5235C24.082 44.5212 25.5255 42.9167 25.5255 40.9344ZM20.3024 40.9344C20.3024 39.7054 21.1991 38.7073 22.3033 38.7073C23.4074 38.7073 24.3041 39.7054 24.3041 40.9344C24.3041 42.1634 23.4074 43.1616 22.3033 43.1616C21.197 43.1616 20.3024 42.1634 20.3024 40.9344ZM22.3012 45.4237C18.9553 45.4237 16.2356 48.4507 16.2356 52.1752V53.178C16.2356 54.1808 16.971 54.9994 17.8719 54.9994H26.7281C27.629 54.9994 28.3644 54.1808 28.3644 53.178V52.1752C28.3686 48.4509 25.6493 45.4237 22.3012 45.4237ZM27.1514 53.1728C27.1514 53.4294 26.9628 53.6393 26.7323 53.6393H17.8761C17.6457 53.6393 17.4571 53.4294 17.4571 53.1728V52.17C17.4571 49.1966 19.6298 46.7736 22.3052 46.7736C24.9807 46.7736 27.1534 49.192 27.1534 52.17L27.1554 53.1728H27.1514ZM49.4683 10.6007C49.4683 10.9761 49.1939 11.2816 48.8566 11.2816L24.9681 11.2793C24.6308 11.2793 24.3563 10.9738 24.3563 10.5983C24.3563 10.2229 24.6308 9.91739 24.9681 9.91739H48.863C49.194 9.91972 49.4683 10.2229 49.4683 10.6007ZM49.4683 15.2018C49.4683 15.5773 49.1939 15.8828 48.8566 15.8828H28.9467C28.6094 15.8828 28.335 15.5773 28.335 15.2018C28.335 14.8264 28.6094 14.5209 28.9467 14.5209H48.8566C49.1939 14.5279 49.4683 14.8334 49.4683 15.2018ZM49.4683 19.8124C49.4683 20.1878 49.1939 20.4933 48.8566 20.4933H32.9275C32.5902 20.4933 32.3158 20.1878 32.3158 19.8124C32.3158 19.4369 32.5902 19.1314 32.9275 19.1314H48.8566C49.1939 19.1314 49.4683 19.4346 49.4683 19.8124ZM49.4683 24.4206C49.4683 24.796 49.1939 25.1015 48.8566 25.1015H36.9121C36.5747 25.1015 36.3003 24.796 36.3003 24.4206C36.3003 24.0451 36.5748 23.7396 36.9121 23.7396H48.8566C49.1939 23.7396 49.4683 24.0451 49.4683 24.4206Z" fill="black"/>
</svg>
