<svg width="60" height="60" viewBox="0 0 60 60" fill="none" xmlns="http://www.w3.org/2000/svg">
<path d="M56.4728 50.4529L52.1316 46.7029C52.1316 46.6499 52.1493 46.6058 52.1493 46.5529V4.94993C52.1493 3.19406 50.7198 1.76465 48.964 1.76465H5.18162C3.42575 1.76465 1.99634 3.19406 1.99634 4.94993V46.5529C1.99634 48.3088 3.42575 49.7382 5.18162 49.7382H34.1051C36.0822 50.2141 37.9754 50.2502 40.061 49.7382H44.2081L50.2257 56.6911C51.9492 58.6986 54.9449 58.7144 56.7022 56.9382C58.5685 55.06 58.3706 52.1086 56.4728 50.4529ZM28.511 5.94699H47.1463C47.6316 5.94699 48.0287 6.34406 48.0287 6.82935C48.0287 7.32346 47.6316 7.7117 47.1463 7.7117H28.511C28.0258 7.7117 27.6287 7.32346 27.6287 6.82935C27.6287 6.34407 28.0258 5.94699 28.511 5.94699ZM15.3905 5.94699H16.0257C16.511 5.94699 16.9081 6.34406 16.9081 6.82935C16.9081 7.31463 16.511 7.7117 16.0257 7.7117H15.3905C14.9052 7.7117 14.5081 7.31463 14.5081 6.82935C14.5081 6.34406 14.9052 5.94699 15.3905 5.94699ZM11.1905 5.94699H11.8257C12.3198 5.94699 12.7081 6.34406 12.7081 6.82935C12.7081 7.31463 12.3198 7.7117 11.8257 7.7117H11.1905C10.7052 7.7117 10.3081 7.31463 10.3081 6.82935C10.3081 6.34406 10.7052 5.94699 11.1905 5.94699ZM6.99928 5.94699H7.63455C8.11988 5.94699 8.5169 6.34406 8.5169 6.82935C8.5169 7.31463 8.11988 7.7117 7.63455 7.7117H6.99928C6.50516 7.7117 6.11693 7.31463 6.11693 6.82935C6.11693 6.34406 6.50516 5.94699 6.99928 5.94699ZM5.18163 47.9735C4.3875 47.9735 3.76105 47.347 3.76105 46.5529V11.9029H50.3846V45.194L48.2228 43.3323C49.1581 41.55 49.6434 39.5558 49.6434 37.5264C49.6434 30.5999 44.0052 24.9529 37.0699 24.9529C30.1345 24.9529 24.4964 30.5999 24.4964 37.5264C24.4964 41.8764 26.7199 45.7147 30.0816 47.9735H5.18163ZM37.0699 48.344C31.114 48.344 26.2611 43.4911 26.2611 37.5264C26.2611 31.5706 31.114 26.7176 37.0699 26.7176C43.0346 26.7176 47.8787 31.5706 47.8787 37.5264C47.8787 43.5056 43.0157 48.344 37.0699 48.344Z" fill="black"/>
<path d="M19.8697 22.9062C20.6064 22.9062 21.1992 22.6942 21.6482 22.2711C22.0975 21.8476 22.322 21.2768 22.322 20.5573V15.2869H21.0209V20.5521C21.0209 20.9619 20.917 21.2824 20.7089 21.515C20.5004 21.7473 20.2208 21.8632 19.8697 21.8632C19.4948 21.8632 19.2083 21.7628 19.0106 21.5611C18.8124 21.3599 18.7137 21.0596 18.7137 20.6607H17.4126C17.4126 21.366 17.6259 21.9166 18.0528 22.3125C18.4794 22.708 19.0851 22.9062 19.8697 22.9062Z" fill="black"/>
<path d="M27.4249 22.5499C27.8187 22.3125 28.1216 21.9769 28.3331 21.543C28.5451 21.1096 28.6506 20.6176 28.6506 20.067L28.6455 19.7727C28.6075 18.9709 28.3538 18.3273 27.8842 17.8421C27.4146 17.3566 26.8028 17.114 26.0488 17.114C25.5396 17.114 25.0889 17.2321 24.6964 17.4677C24.3043 17.7034 23.9997 18.0407 23.7826 18.4793C23.5659 18.9184 23.4578 19.4112 23.4578 19.9584V20.0204C23.4578 20.8946 23.6943 21.5938 24.1674 22.1186C24.6404 22.6438 25.2712 22.9062 26.0592 22.9062C26.5757 22.9062 27.0307 22.7873 27.4249 22.5499ZM25.0682 21.4168C24.8308 21.0915 24.7119 20.6417 24.7119 20.067C24.7119 19.4199 24.8326 18.9339 25.0734 18.6086C25.3142 18.2833 25.6395 18.1209 26.0488 18.1209C26.4654 18.1209 26.795 18.2859 27.0376 18.6164C27.2802 18.9468 27.4016 19.394 27.4016 19.9584C27.4016 20.5952 27.2836 21.0786 27.0479 21.409C26.8123 21.7395 26.4827 21.9045 26.0592 21.9045C25.6361 21.9045 25.3056 21.7421 25.0682 21.4168Z" fill="black"/>
<path d="M30.9068 22.1989C31.2713 22.6706 31.7806 22.9063 32.4346 22.9063C33.1127 22.9063 33.6452 22.6499 34.0321 22.1368C34.4194 21.6241 34.6129 20.9344 34.6129 20.0671V19.9947C34.6129 19.0861 34.4186 18.3791 34.0295 17.8728C33.6409 17.367 33.1058 17.1141 32.4242 17.1141C31.8116 17.1141 31.3247 17.3274 30.9633 17.7544V14.8738H29.7091V22.8029H30.8448L30.9068 22.1989ZM30.9633 18.8538C31.1834 18.3791 31.5656 18.1412 32.1093 18.1412C32.5156 18.1412 32.8253 18.2929 33.0386 18.5958C33.2519 18.8986 33.3587 19.3527 33.3587 19.9585V20.1183C33.3518 20.7103 33.2415 21.1528 33.0283 21.4453C32.815 21.7379 32.5121 21.8839 32.1196 21.8839C31.5725 21.8839 31.1869 21.6413 30.9633 21.1562L30.9633 18.8538Z" fill="black"/>
<path d="M22.6753 26.5089H8.13064C7.64336 26.5089 7.24829 26.904 7.24829 27.3913C7.24829 27.8785 7.64336 28.2736 8.13064 28.2736H22.6753C23.1625 28.2736 23.5576 27.8785 23.5576 27.3913C23.5576 26.904 23.1625 26.5089 22.6753 26.5089Z" fill="black"/>
<path d="M22.6753 31.6849H8.13064C7.64336 31.6849 7.24829 32.08 7.24829 32.5673C7.24829 33.0546 7.64336 33.4496 8.13064 33.4496H22.6753C23.1625 33.4496 23.5576 33.0546 23.5576 32.5673C23.5576 32.08 23.1625 31.6849 22.6753 31.6849Z" fill="black"/>
<path d="M22.6753 36.8611H8.13064C7.64336 36.8611 7.24829 37.2562 7.24829 37.7434C7.24829 38.2307 7.64336 38.6258 8.13064 38.6258H22.6753C23.1625 38.6258 23.5576 38.2307 23.5576 37.7434C23.5576 37.2562 23.1625 36.8611 22.6753 36.8611Z" fill="black"/>
<path d="M22.6753 42.0371H8.13064C7.64336 42.0371 7.24829 42.4322 7.24829 42.9195C7.24829 43.4067 7.64336 43.8018 8.13064 43.8018H22.6753C23.1625 43.8018 23.5576 43.4067 23.5576 42.9195C23.5576 42.4322 23.1625 42.0371 22.6753 42.0371Z" fill="black"/>
</svg>
