<svg width="60" height="60" viewBox="0 0 60 60" fill="none" xmlns="http://www.w3.org/2000/svg">
<path d="M25.482 11.2928C25.482 11.2928 28.4314 16.0695 28.2681 21.1652C27.913 21.8277 26.3602 24.8854 25.557 27.4463L30.1997 30.192C30.9114 28.8533 32.0665 27.0775 31.9544 25.0679C31.7903 22.1214 29.1282 17.9826 29.1282 17.9826C29.1282 17.9826 29.1684 4.68672 19.8303 5.00565C10.4899 5.32302 7.62339 20.0488 7.5413 21.8016C7.45841 23.5521 7.78669 26.1796 7.78669 26.1796C7.78669 26.1796 6.96691 26.3391 7.04979 27.0552C7.1303 27.7729 7.82699 28.489 7.86879 29.0464C7.91058 29.6046 6.14792 29.4849 6.23072 30.2425C6.31281 30.9969 7.46 31.276 7.2951 31.8342C7.13021 32.3908 4.92014 32.9889 5.00223 34.8597C5.08512 36.7321 8.40208 38.4832 8.60568 40.5918C8.81087 42.7002 5.69733 44.0143 5.41093 46.244C5.12533 48.4721 9.21957 49.8262 9.26216 51.8565C9.30246 53.8852 6.55821 55 6.55821 55C6.55821 55 13.7265 54.8804 11.1463 46.9586C10.695 46.1627 15.2422 41.8246 13.6862 37.7241C15.2421 36.6094 13.6862 34.0607 13.6862 34.0607C13.6862 34.0607 15.2729 32.8263 15.2421 30.6779C15.2113 28.528 13.6862 25.7815 13.6862 25.7815C13.6862 25.7815 17.1666 19.6906 18.272 16.9442C22.1248 18.339 25.482 11.2928 25.482 11.2928Z" fill="black"/>
<path d="M35.805 46.3208C35.805 43.8551 31.7905 41.7052 31.7905 41.7052C31.7905 41.7052 32.6663 40.0997 32.8257 38.3101L35.2922 38.0907C34.601 37.5296 33.7253 36.8119 32.7594 36.0176C32.679 36.0359 32.5954 36.0543 32.5148 36.0742C32.4486 35.9224 32.3807 35.7722 32.3034 35.628L25.1012 29.7319C25.098 29.8163 25.0704 29.9251 25.0736 30.0018C25.1415 31.983 27.3341 35.7645 28.1389 37.0895C23.8663 38.0877 19.9062 39.02 19.9062 39.02L19.1543 39.5276L27.514 38.7823C27.0643 39.4908 26.609 40.4262 26.5475 41.3861C26.4244 43.3367 28.1035 48.512 32.1188 49.5058C30.7679 51.6939 32.6932 52.5297 32.6932 52.5297C32.6932 52.5297 36.2959 52.9683 34.8219 48.9492C34.2886 48.5903 35.805 48.7897 35.805 46.3208Z" fill="black"/>
<path d="M53.4363 28.0427C52.5195 27.3504 51.3423 27.0038 50.1162 27.0713C48.3518 27.1687 46.8227 28.1216 46.1174 29.4835C45.9201 29.7656 43.1317 33.6574 38.5506 34.7278C38.4528 34.7355 38.0552 34.8198 37.4429 34.9532L37.7601 36.2827L37.7648 36.2781L50.5848 35.1479C50.5848 35.1479 50.5769 35.1433 50.5611 35.1325C50.5691 35.1325 50.5769 35.1325 50.5848 35.1325C52.6884 35.0191 54.4637 33.6865 54.8977 31.8955C54.9829 31.5535 55.0144 31.1993 54.9939 30.8466C54.9322 29.7533 54.3783 28.7565 53.4363 28.0427ZM53.5925 31.5935C53.2926 32.8249 52.024 33.7449 50.5106 33.8261C49.6127 33.8768 48.7558 33.6284 48.0962 33.13C47.4649 32.6485 47.0941 31.9937 47.0531 31.2853C47.0405 31.0583 47.061 30.8314 47.1145 30.6106C47.4144 29.3792 48.6815 28.4607 50.1949 28.3779C51.0927 28.3289 51.9496 28.5757 52.6078 29.0756C53.2405 29.5556 53.6114 30.2088 53.6524 30.9203C53.6651 31.1441 53.6446 31.3726 53.5925 31.5935Z" fill="black"/>
<path d="M48.4558 43.8885C48.3832 43.8502 48.3059 43.8165 48.2318 43.7812L37.4457 37.4035L36.8966 35.1003L22.3794 26.2998L22.7708 27.055C22.7708 27.055 36.824 38.7545 37.4537 39.1287C41.0074 41.9763 41.809 46.4479 41.8911 46.957C41.8674 48.5181 42.8174 50.0745 44.4002 50.9347C45.4701 51.516 46.6852 51.7076 47.8215 51.473C48.9924 51.2308 49.9393 50.5714 50.4867 49.6176C50.6556 49.3217 50.7834 49.0057 50.8624 48.676C51.3057 46.8696 50.3148 44.9007 48.4558 43.8885ZM36.3963 36.2258C36.3049 36.597 35.923 36.8254 35.541 36.7381C35.1591 36.6507 34.924 36.2781 35.0139 35.9085C35.1023 35.5389 35.4858 35.3089 35.8676 35.3963C36.2497 35.4852 36.4863 35.8548 36.3963 36.2258ZM49.5557 48.377C49.5035 48.587 49.4231 48.7909 49.3143 48.9797C48.956 49.6022 48.328 50.0316 47.5436 50.1941C46.7262 50.3613 45.8442 50.2203 45.0583 49.794C43.7201 49.0671 43.0005 47.6916 43.3019 46.448C43.354 46.2379 43.4361 46.034 43.5449 45.8452C43.9016 45.2242 44.5297 44.7918 45.314 44.6323C46.1314 44.4636 47.0134 44.6047 47.7994 45.0325C49.1359 45.7578 49.8586 47.1334 49.5557 48.377Z" fill="black"/>
</svg>
