<svg width="60" height="60" viewBox="0 0 60 60" fill="none" xmlns="http://www.w3.org/2000/svg">
<path d="M30 5C16.215 5 5 16.215 5 30C5 43.785 16.215 55 30 55C43.785 55 55 43.785 55 30C55 16.215 43.785 5 30 5ZM18.7647 10.1867L19.4739 10.7695L20.2585 10.9224C20.2585 10.9224 20.3095 11.5542 20.2585 11.6805C20.2076 11.8069 19.3985 11.9332 19.3985 11.9332L17.9047 11.6296L17.0202 11.275L16.959 10.8511C17.5093 10.4761 18.0799 10.1255 18.6628 9.7954L18.7647 10.1867ZM6.82186 30.0002C6.82186 27.5791 7.19685 25.2435 7.88978 23.0467L8.56844 23.5969V24.4081L9.10034 25.1173L9.53035 26.23L10.315 26.8638L10.4413 26.23L9.83399 24.7117L9.37952 23.9006L9.65669 22.7878L10.3149 22.9386L10.5187 24.457L11.5806 25.9508V27.5201L12.3387 28.5574L14.7435 28.7082L15.0737 29.4928L16.2618 29.5682L18.1591 31.3657L19.8792 31.5695L19.9811 32.6823C19.9811 32.6823 18.7665 34.3534 18.6646 34.3269C18.5627 34.3025 19.0437 36.7052 19.0437 36.7052L20.4621 38.2745L20.5375 38.8329L21.1469 39.375L22.6367 40.3981L22.763 42.4483C22.763 42.4483 22.5348 44.421 22.5348 44.523C22.5348 44.6249 23.0402 45.4849 23.0402 45.5848C23.0402 45.6867 23.0158 46.9258 23.0158 46.9258L23.7739 47.205L24.1917 48.2688C24.1917 48.2688 23.7739 48.4706 23.6985 48.5725C23.6231 48.6744 23.6475 49.9889 23.6475 49.9889L25.7976 52.5201C25.7976 52.5201 25.9382 52.6709 26.1013 52.8421C15.1717 50.9834 6.82186 41.4515 6.82186 30.0002ZM30 53.1783C29.0992 53.1783 28.2106 53.1213 27.3343 53.0194C27.5463 52.9012 27.7215 52.7972 27.7215 52.7972V51.8618L27.2915 51.7089L27.0632 50.8489L27.1651 50.5962L27.0897 49.9645L26.5334 49.8381L26.5089 49.1045L26.7372 48.7254L26.3581 48.0936L26.7637 47.8919L27.9274 47.4863L30.2303 44.678L30.483 43.1862L30 42.8275L30.1773 42.0938H31.9239L32.682 41.7902L33.112 41.0055L33.1365 38.9553L33.5665 37.4105L34.3511 37.005V35.9941L33.593 35.5906L32.7819 34.5024L29.0891 34.3515L28.9872 32.8332L28.6326 31.8957C28.6326 31.8957 27.0633 31.5676 26.937 31.5167C26.8106 31.4657 25.6979 30.6057 25.6204 30.6587C25.545 30.7117 24.3039 30.6057 24.2285 30.6567C24.1531 30.7076 23.4948 29.6173 23.4683 29.493C23.4439 29.3666 22.2537 29.1139 22.2537 29.1139C22.2537 29.1139 21.3692 29.9495 21.09 30.2531C20.8108 30.5568 19.6736 30.6587 19.6736 30.6587C19.6736 30.6587 18.6363 29.6967 18.6098 29.5948C18.5853 29.4929 18.1043 28.2029 18.1043 28.2029L17.0405 28.0521L17.5724 26.8374L17.3197 26.4319C17.3197 26.4319 16.2823 27.0901 16.1051 27.243C15.9278 27.3959 14.9413 27.724 14.9413 27.724H14.4094L14.0304 26.1058L15.6526 24.078L18.9542 24.129V24.7363C18.9542 24.7363 19.6878 25.1663 19.7266 25.1663C19.7633 25.1663 20.232 24.989 20.232 24.989L20.3848 23.8253C20.3848 23.8253 21.4487 24.129 22.4473 21.9402C23.4459 19.7514 26.9003 18.0435 26.9003 18.0435L27.2182 17.7663L26.8636 17.4382L26.6619 17.0591L26.8392 16.7555L27.7257 16.9206L27.9274 17.1855L28.9403 17.159L28.9668 17.8173L29.5864 18.2982C29.5864 18.2982 30.1814 18.4755 30.2181 18.4755C30.2568 18.4755 30.75 18.4246 30.75 18.4246L30.8886 17.6033L30.4545 17.6012L29.8981 17.4117L29.8859 16.9552L30.1142 16.8655L30.4932 16.462L30.5951 15.9179L30.2772 15.3105L29.7086 14.9824L29.5945 14.426V13.9063H29.1013C29.1013 13.9063 28.8486 14.1591 28.8099 14.1713C28.7711 14.1835 28.5572 14.5503 28.5572 14.5503L28.0253 14.6013V13.9043L27.6075 13.6516L27.2019 12.9933L26.4051 12.8283L25.7224 13.7026L25.4696 14.7399L25.4941 15.2963L24.7849 15.3085C24.7849 15.3085 24.1143 15.9423 24.0899 16.0177C24.0655 16.0952 23.988 16.6515 23.988 16.6515C23.988 16.6515 23.4439 16.676 23.4439 16.6515C23.4439 16.6271 23.3175 15.7018 23.3175 15.7018L23.1015 15.3737L22.1029 15.0823L22.001 14.6645L21.5322 14.4607L21.3549 13.6903H21.8481L23.5559 12.6265L24.2896 12.6387L24.4791 13.0443H24.9478L25.5042 12.2474L26.9838 11.5138L27.0347 10.8942L28.3003 11.0206L28.553 11.7298L27.8703 12.2862L27.9212 12.7672L29.2622 13.0464L29.7677 12.5654L30.805 12.4126C30.805 12.4126 31.235 11.6544 31.2615 11.577C31.286 11.5016 30.8559 11.577 30.7805 11.577C30.7051 11.577 30.6542 10.9452 30.6542 10.9452L29.2887 9.73058L27.316 9.50233L26.3805 10.1341C26.3805 10.1341 25.8731 11.1205 25.7223 11.3242C25.5694 11.526 25.2413 11.3242 25.064 11.3242C24.8867 11.3242 24.9376 10.6415 24.9376 10.6415L25.064 9.98325L24.1795 9.70609L23.8494 9.88339L24.0022 10.4663C24.0022 10.4663 23.9268 11.0226 23.9003 11.098C23.8759 11.1734 23.0912 11.2753 23.0912 11.2753L22.2556 11.7807L21.3182 11.9315L21.9784 10.8453L22.7366 9.83244L22.5083 9.68163L21.471 10.6191L21.0165 10.719L20.7393 10.0363L19.6979 9.24756C22.8038 7.69867 26.3009 6.82238 29.9999 6.82238C35.9037 6.82238 41.2963 9.04581 45.3949 12.6939L44.3474 13.3012L44.2211 14.2122L45.0057 14.7706H45.9146C45.9146 14.7706 46.473 15.3779 46.4221 15.4778C46.3711 15.5797 46.0675 15.9343 46.0675 15.9343L44.4229 15.6571L43.6382 17.2773H42.069V18.2393C42.069 18.2393 42.5744 18.4166 42.5235 18.5695C42.4725 18.7203 42.1688 19.2012 42.1688 19.2012C42.1688 19.2012 40.2715 19.1258 40.1696 19.2012C40.0677 19.2766 39.5113 19.8595 39.5113 19.9858C39.5113 20.1122 39.815 20.9987 39.815 20.9987C39.815 20.9987 40.4468 21.5041 40.5486 21.5041C40.6505 21.5041 41.8652 21.7813 41.8652 21.7813C41.8652 21.7813 43.0798 20.9213 43.1308 20.8458C43.1817 20.7684 45.2055 18.8975 45.2055 18.8975C45.2055 18.8975 47.2047 20.4423 47.1782 20.5157C47.1517 20.5911 47.1537 21.0986 47.1782 21.0721C47.2027 21.0476 46.7991 21.2759 46.7991 21.2759L46.7482 21.9586L47.7611 21.5286L48.0912 20.4403L47.5083 19.6047L47.0783 18.8446L47.2312 18.5674L47.8385 18.6183C47.8385 18.6183 48.4194 19.4784 48.4194 19.6292C48.4194 19.782 48.8249 21.3003 48.8249 21.3003L49.6849 21.4022L49.9621 20.4647V19.8574L50.3412 19.6556L50.5939 20.5911L50.3656 21.4267C50.3656 21.4267 50.5429 22.0849 50.7691 21.9586C50.9322 21.8689 51.352 21.6753 51.5782 21.5714C51.8595 22.2765 52.104 23 52.3119 23.7398C51.9124 23.7194 51.1054 23.6786 51.0768 23.6501C51.0381 23.6134 50.8364 23.2588 50.8364 23.2588C50.8364 23.2588 50.2657 23.0305 50.2657 22.9938C50.2657 22.9572 49.102 22.8553 49.102 22.8553L48.8248 23.3036L48.4193 23.5237L47.9138 23.3036L47.2801 23.0428L46.0776 22.8532L45.7353 22.2459L45.507 21.5122L44.2068 21.3594C44.2068 21.3594 43.789 21.5102 43.7136 21.5999C43.6382 21.6875 42.5743 21.7772 42.5743 21.7772L42.4235 22.3845L39.766 22.3478C39.766 22.3478 39.285 23.4239 39.0832 23.752C38.8815 24.0822 36.654 26.3076 36.654 26.3076L37.3122 27.1167L36.654 28.2294C36.654 28.2294 36.9576 29.9495 37.0086 30.0004C37.0595 30.0514 39.5133 32.3278 39.5133 32.3278H42.1708C42.1708 32.3278 42.5255 31.5697 42.6763 31.5697H43.8909L44.3474 32.3278H45.562L45.8575 33.5424V34.4534L45.8555 35.3644C45.8555 35.3644 47.1802 36.2244 47.1802 37.0845V38.3501L46.4588 38.9451L46.5464 40.2617L47.166 41.0973L47.2291 42.9314L47.9119 43.6284L47.8365 44.3498L47.922 44.68C43.6688 49.8626 37.2149 53.1783 30 53.1783Z" fill="black"/>
<path d="M40.8175 16.7795C40.8685 16.7408 41.4901 16.1457 41.4901 16.1457L41.4126 15.7789L41.7407 15.7666L41.8671 16.1722L41.704 16.2598L41.5899 16.6776L41.6531 16.9222H43.3039L43.579 16.4575L43.0573 15.7728L42.7068 15.6118L42.5172 14.7008C42.5172 14.7008 42.1178 14.4929 42.1178 14.4644C42.1178 14.4358 42.0994 14.1709 42.0994 14.1709L41.6531 14.1994L41.3596 14.5887C41.3596 14.5887 40.9419 14.8169 40.9317 14.8638C40.9215 14.9107 40.7421 15.3468 40.7421 15.3468L40.4283 15.4895C40.4283 15.4895 40.1348 16.0458 40.0594 16.109C39.984 16.1722 39.5153 16.3128 39.5153 16.3128L39.4011 16.7693L40.1327 17.2177C40.1327 17.2177 40.7665 16.8162 40.8175 16.7795Z" fill="black"/>
</svg>
