<svg width="60" height="60" viewBox="0 0 60 60" fill="none" xmlns="http://www.w3.org/2000/svg">
<path d="M39.7664 41.7639C39.7721 40.1893 39.3406 38.6476 38.5255 37.3299C37.7103 36.0122 36.5473 34.9764 35.1807 34.3511C33.814 33.7258 32.3039 33.5384 30.8374 33.8121C29.371 34.0859 28.0128 34.8087 26.9313 35.8911L24.5742 29.8128L32.0443 6.99312C32.1731 6.62508 32.1583 6.21801 32.0033 5.86147C31.8482 5.50493 31.5656 5.22812 31.2175 5.09194C30.8694 4.95577 30.4845 4.97137 30.1473 5.13533C29.8101 5.29929 29.5483 5.59816 29.4196 5.96621L22.3799 24.1731L15.3246 5.96621C15.1958 5.59816 14.934 5.29929 14.5968 5.13533C14.2597 4.97137 13.8747 4.95577 13.5266 5.09194C13.1786 5.22812 12.8959 5.50493 12.7409 5.86147C12.5858 6.21801 12.571 6.62508 12.6998 6.99312L20.1856 29.8128L17.8234 35.8911C16.5838 34.6715 14.9958 33.9227 13.3095 33.7627C11.6232 33.6026 9.93443 34.0404 8.50932 35.007C7.08421 35.9736 6.00374 37.4141 5.43816 39.1016C4.87258 40.789 4.85404 42.6275 5.38544 44.3273C5.91685 46.0271 6.96801 47.4917 8.37329 48.4902C9.77858 49.4888 11.4581 49.9645 13.1473 49.8425C14.8364 49.7205 16.4392 49.0077 17.7031 47.8165C18.9669 46.6252 19.82 45.0231 20.1279 43.2626L22.338 36.4517L24.5637 43.2626C24.8659 44.9127 25.6472 46.4219 26.799 47.5801C27.9508 48.7383 29.4155 49.4877 30.9892 49.7239C31.4058 51.2389 32.2744 52.5709 33.4654 53.5213C34.6565 54.4716 36.1062 54.9893 37.5983 54.9972C37.7878 55.0096 37.9777 54.9807 38.1563 54.9125C38.3349 54.8443 38.4984 54.7382 38.6367 54.6006C38.775 54.4631 38.8853 54.297 38.9606 54.1127C39.036 53.9284 39.0748 53.7298 39.0748 53.529C39.0748 53.3282 39.036 53.1296 38.9606 52.9453C38.8853 52.761 38.775 52.595 38.6367 52.4574C38.4984 52.3199 38.3349 52.2137 38.1563 52.1455C37.9777 52.0773 37.7878 52.0485 37.5983 52.0608C36.8221 52.056 36.0627 51.8208 35.4066 51.3822C34.7504 50.9436 34.2239 50.319 33.8869 49.5796C35.5352 49.143 36.9984 48.1371 38.0445 46.7212C39.0906 45.3053 39.6596 43.5606 39.6614 41.7639H39.7664ZM12.6841 45.4386C11.9968 45.4386 11.3249 45.2231 10.7534 44.8193C10.1819 44.4155 9.73646 43.8416 9.47344 43.1701C9.21041 42.4987 9.14159 41.7598 9.27568 41.047C9.40977 40.3342 9.74075 39.6794 10.2268 39.1655C10.7128 38.6516 11.332 38.3016 12.0061 38.1598C12.6802 38.018 13.379 38.0908 14.014 38.3689C14.649 38.6471 15.1917 39.1181 15.5736 39.7224C15.9555 40.3267 16.1593 41.0371 16.1593 41.7639C16.16 42.2467 16.0705 42.7248 15.8961 43.171C15.7217 43.6172 15.4658 44.0226 15.143 44.3639C14.8201 44.7053 14.4367 44.976 14.0148 45.1604C13.5929 45.3448 13.1406 45.4393 12.6841 45.4386ZM32.1073 45.4386C31.4198 45.4397 30.7474 45.2251 30.1752 44.822C29.603 44.4189 29.1568 43.8454 28.8929 43.174C28.6291 42.5026 28.5595 41.7636 28.693 41.0504C28.8265 40.3372 29.1571 39.6819 29.6429 39.1675C30.1287 38.653 30.7479 38.3025 31.4221 38.1602C32.0964 38.018 32.7954 38.0904 33.4307 38.3684C34.066 38.6464 34.6091 39.1174 34.9912 39.7218C35.3733 40.3262 35.5772 41.0369 35.5772 41.7639C35.5773 42.7337 35.2147 43.6642 34.5687 44.3525C33.9226 45.0409 33.0454 45.4313 32.1283 45.4386H32.1073Z" fill="black"/>
<path d="M50.8813 5.03305H41.2431C41.0536 5.02072 40.8637 5.04955 40.6851 5.11776C40.5065 5.18597 40.3431 5.29211 40.2047 5.42966C40.0664 5.5672 39.9562 5.73324 39.8808 5.91753C39.8055 6.10183 39.7666 6.30048 39.7666 6.50126C39.7666 6.70204 39.8055 6.90069 39.8808 7.08499C39.9562 7.26928 40.0664 7.43532 40.2047 7.57286C40.3431 7.71041 40.5065 7.81655 40.6851 7.88476C40.8637 7.95297 41.0536 7.9818 41.2431 7.96947H46.7971V9.47376H41.2431C41.0536 9.46143 40.8637 9.49026 40.6851 9.55847C40.5065 9.62668 40.3431 9.73283 40.2047 9.87037C40.0664 10.0079 39.9562 10.1739 39.8808 10.3582C39.8055 10.5425 39.7666 10.7412 39.7666 10.942C39.7666 11.1428 39.8055 11.3414 39.8808 11.5257C39.9562 11.71 40.0664 11.876 40.2047 12.0136C40.3431 12.1511 40.5065 12.2573 40.6851 12.3255C40.8637 12.3937 41.0536 12.4225 41.2431 12.4102H46.7971V13.859H41.2431C41.0536 13.8466 40.8637 13.8755 40.6851 13.9437C40.5065 14.0119 40.3431 14.118 40.2047 14.2556C40.0664 14.3931 39.9562 14.5592 39.8808 14.7434C39.8055 14.9277 39.7666 15.1264 39.7666 15.3272C39.7666 15.528 39.8055 15.7266 39.8808 15.9109C39.9562 16.0952 40.0664 16.2612 40.2047 16.3988C40.3431 16.5363 40.5065 16.6425 40.6851 16.7107C40.8637 16.7789 41.0536 16.8077 41.2431 16.7954H46.7971V18.2664H41.2431C41.0536 18.254 40.8637 18.2829 40.6851 18.3511C40.5065 18.4193 40.3431 18.5254 40.2047 18.663C40.0664 18.8005 39.9562 18.9666 39.8808 19.1509C39.8055 19.3351 39.7666 19.5338 39.7666 19.7346C39.7666 19.9354 39.8055 20.134 39.8808 20.3183C39.9562 20.5026 40.0664 20.6686 40.2047 20.8062C40.3431 20.9437 40.5065 21.0499 40.6851 21.1181C40.8637 21.1863 41.0536 21.2151 41.2431 21.2028H46.7971V22.6682H41.2431C41.0536 22.6559 40.8637 22.6847 40.6851 22.7529C40.5065 22.8211 40.3431 22.9273 40.2047 23.0648C40.0664 23.2024 39.9562 23.3684 39.8808 23.5527C39.8055 23.737 39.7666 23.9357 39.7666 24.1364C39.7666 24.3372 39.8055 24.5359 39.8808 24.7202C39.9562 24.9045 40.0664 25.0705 40.2047 25.208C40.3431 25.3456 40.5065 25.4517 40.6851 25.5199C40.8637 25.5881 41.0536 25.617 41.2431 25.6047H46.7971V27.0756H41.2431C41.0536 27.0633 40.8637 27.0921 40.6851 27.1603C40.5065 27.2286 40.3431 27.3347 40.2047 27.4722C40.0664 27.6098 39.9562 27.7758 39.8808 27.9601C39.8055 28.1444 39.7666 28.3431 39.7666 28.5438C39.7666 28.7446 39.8055 28.9433 39.8808 29.1276C39.9562 29.3119 40.0664 29.4779 40.2047 29.6154C40.3431 29.753 40.5065 29.8591 40.6851 29.9273C40.8637 29.9956 41.0536 30.0244 41.2431 30.0121H48.1725C48.9086 30.0135 49.6141 30.3234 50.1346 30.8737C50.6551 31.4241 50.9481 32.1701 50.9495 32.9485V53.4868C50.9425 53.8725 51.0808 54.2453 51.3338 54.5233C51.5868 54.8012 51.9339 54.9615 52.2986 54.9689C52.6634 54.9762 53.016 54.8301 53.2789 54.5625C53.5417 54.295 53.6933 53.928 53.7002 53.5423L54.9969 9.60143C55.0188 9.01072 54.9278 8.42141 54.7293 7.86874C54.5308 7.31607 54.229 6.81141 53.8418 6.38493C53.4547 5.95845 52.9902 5.61891 52.4761 5.38663C51.962 5.15435 51.4088 5.03409 50.8498 5.03305H50.8813Z" fill="black"/>
</svg>
